<mxfile host="Electron" agent="Mozilla/5.0 (Windows NT 10.0; Win64; x64) AppleWebKit/537.36 (KHTML, like Gecko) draw.io/24.7.5 Chrome/126.0.6478.183 Electron/31.3.0 Safari/537.36" version="24.7.5">
  <diagram name="第 1 页" id="QH694kqTPZmv5zhzMXJK">
    <mxGraphModel dx="1204" dy="940" grid="1" gridSize="10" guides="1" tooltips="1" connect="1" arrows="1" fold="1" page="1" pageScale="1" pageWidth="827" pageHeight="1169" math="0" shadow="0">
      <root>
        <mxCell id="0" />
        <mxCell id="1" parent="0" />
        <mxCell id="SdMJ1yGRml973B7oLKnL-101" value="" style="rounded=0;whiteSpace=wrap;html=1;" vertex="1" parent="1">
          <mxGeometry x="168" y="100" width="390" height="580" as="geometry" />
        </mxCell>
        <mxCell id="SdMJ1yGRml973B7oLKnL-2" value="用户" style="shape=umlActor;verticalLabelPosition=bottom;verticalAlign=top;html=1;outlineConnect=0;" vertex="1" parent="1">
          <mxGeometry x="60" y="360" width="30" height="60" as="geometry" />
        </mxCell>
        <mxCell id="SdMJ1yGRml973B7oLKnL-3" value="系统管理员" style="shape=umlActor;verticalLabelPosition=bottom;verticalAlign=top;html=1;outlineConnect=0;" vertex="1" parent="1">
          <mxGeometry x="610" y="350" width="30" height="60" as="geometry" />
        </mxCell>
        <mxCell id="SdMJ1yGRml973B7oLKnL-4" value="&lt;font style=&quot;font-size: 14px;&quot;&gt;宠物新闻&lt;/font&gt;" style="text;strokeColor=none;fillColor=none;html=1;fontSize=24;fontStyle=1;verticalAlign=middle;align=center;" vertex="1" parent="1">
          <mxGeometry x="306" y="100" width="100" height="40" as="geometry" />
        </mxCell>
        <mxCell id="SdMJ1yGRml973B7oLKnL-5" value="浏览新闻" style="ellipse;whiteSpace=wrap;html=1;" vertex="1" parent="1">
          <mxGeometry x="206" y="150" width="90" height="40" as="geometry" />
        </mxCell>
        <mxCell id="SdMJ1yGRml973B7oLKnL-6" value="评论新闻" style="ellipse;whiteSpace=wrap;html=1;" vertex="1" parent="1">
          <mxGeometry x="207.25" y="210" width="87.5" height="40" as="geometry" />
        </mxCell>
        <mxCell id="SdMJ1yGRml973B7oLKnL-7" value="点赞/点踩新闻或评论" style="ellipse;whiteSpace=wrap;html=1;" vertex="1" parent="1">
          <mxGeometry x="206" y="270" width="90" height="40" as="geometry" />
        </mxCell>
        <mxCell id="SdMJ1yGRml973B7oLKnL-8" value="举报新闻或评论" style="ellipse;whiteSpace=wrap;html=1;" vertex="1" parent="1">
          <mxGeometry x="207.25" y="330" width="90" height="40" as="geometry" />
        </mxCell>
        <mxCell id="SdMJ1yGRml973B7oLKnL-11" value="收藏新闻" style="ellipse;whiteSpace=wrap;html=1;" vertex="1" parent="1">
          <mxGeometry x="206" y="390" width="90" height="40" as="geometry" />
        </mxCell>
        <mxCell id="SdMJ1yGRml973B7oLKnL-14" value="发布新闻" style="ellipse;whiteSpace=wrap;html=1;" vertex="1" parent="1">
          <mxGeometry x="204.75" y="495" width="90" height="40" as="geometry" />
        </mxCell>
        <mxCell id="SdMJ1yGRml973B7oLKnL-15" value="新闻分类" style="ellipse;whiteSpace=wrap;html=1;" vertex="1" parent="1">
          <mxGeometry x="406" y="480" width="90" height="40" as="geometry" />
        </mxCell>
        <mxCell id="SdMJ1yGRml973B7oLKnL-16" value="图片及视频管理" style="ellipse;whiteSpace=wrap;html=1;" vertex="1" parent="1">
          <mxGeometry x="406" y="535" width="90" height="40" as="geometry" />
        </mxCell>
        <mxCell id="SdMJ1yGRml973B7oLKnL-31" value="" style="endArrow=block;dashed=1;endFill=0;endSize=12;html=1;rounded=0;entryX=0;entryY=0.5;entryDx=0;entryDy=0;exitX=1;exitY=0.5;exitDx=0;exitDy=0;exitPerimeter=0;" edge="1" parent="1" source="SdMJ1yGRml973B7oLKnL-14" target="SdMJ1yGRml973B7oLKnL-15">
          <mxGeometry width="160" relative="1" as="geometry">
            <mxPoint x="293.5" y="535" as="sourcePoint" />
            <mxPoint x="403.5" y="515" as="targetPoint" />
          </mxGeometry>
        </mxCell>
        <mxCell id="SdMJ1yGRml973B7oLKnL-32" value="《include》" style="edgeLabel;html=1;align=center;verticalAlign=middle;resizable=0;points=[];" vertex="1" connectable="0" parent="SdMJ1yGRml973B7oLKnL-31">
          <mxGeometry x="-0.0826" relative="1" as="geometry">
            <mxPoint as="offset" />
          </mxGeometry>
        </mxCell>
        <mxCell id="SdMJ1yGRml973B7oLKnL-33" value="" style="endArrow=block;dashed=1;endFill=0;endSize=12;html=1;rounded=0;entryX=0;entryY=0.5;entryDx=0;entryDy=0;" edge="1" parent="1" target="SdMJ1yGRml973B7oLKnL-16">
          <mxGeometry width="160" relative="1" as="geometry">
            <mxPoint x="296" y="515" as="sourcePoint" />
            <mxPoint x="403.5" y="580" as="targetPoint" />
          </mxGeometry>
        </mxCell>
        <mxCell id="SdMJ1yGRml973B7oLKnL-34" value="《include》" style="edgeLabel;html=1;align=center;verticalAlign=middle;resizable=0;points=[];" vertex="1" connectable="0" parent="SdMJ1yGRml973B7oLKnL-33">
          <mxGeometry x="-0.0826" relative="1" as="geometry">
            <mxPoint as="offset" />
          </mxGeometry>
        </mxCell>
        <mxCell id="SdMJ1yGRml973B7oLKnL-35" value="置顶新闻" style="ellipse;whiteSpace=wrap;html=1;" vertex="1" parent="1">
          <mxGeometry x="208.75" y="575" width="90" height="40" as="geometry" />
        </mxCell>
        <mxCell id="SdMJ1yGRml973B7oLKnL-77" value="" style="endArrow=none;html=1;rounded=0;exitX=1;exitY=0.3333333333333333;exitDx=0;exitDy=0;exitPerimeter=0;entryX=0;entryY=0.5;entryDx=0;entryDy=0;" edge="1" parent="1" source="SdMJ1yGRml973B7oLKnL-2" target="SdMJ1yGRml973B7oLKnL-5">
          <mxGeometry width="50" height="50" relative="1" as="geometry">
            <mxPoint x="230" y="420" as="sourcePoint" />
            <mxPoint x="280" y="370" as="targetPoint" />
          </mxGeometry>
        </mxCell>
        <mxCell id="SdMJ1yGRml973B7oLKnL-78" value="" style="endArrow=none;html=1;rounded=0;entryX=0;entryY=0.5;entryDx=0;entryDy=0;" edge="1" parent="1" target="SdMJ1yGRml973B7oLKnL-6">
          <mxGeometry width="50" height="50" relative="1" as="geometry">
            <mxPoint x="90" y="380" as="sourcePoint" />
            <mxPoint x="220" y="90" as="targetPoint" />
          </mxGeometry>
        </mxCell>
        <mxCell id="SdMJ1yGRml973B7oLKnL-79" value="" style="endArrow=none;html=1;rounded=0;entryX=0;entryY=0.5;entryDx=0;entryDy=0;" edge="1" parent="1" target="SdMJ1yGRml973B7oLKnL-7">
          <mxGeometry width="50" height="50" relative="1" as="geometry">
            <mxPoint x="90" y="380" as="sourcePoint" />
            <mxPoint x="221" y="150" as="targetPoint" />
          </mxGeometry>
        </mxCell>
        <mxCell id="SdMJ1yGRml973B7oLKnL-80" value="" style="endArrow=none;html=1;rounded=0;entryX=0;entryY=0.5;entryDx=0;entryDy=0;exitX=1;exitY=0.3333333333333333;exitDx=0;exitDy=0;exitPerimeter=0;" edge="1" parent="1" source="SdMJ1yGRml973B7oLKnL-2" target="SdMJ1yGRml973B7oLKnL-8">
          <mxGeometry width="50" height="50" relative="1" as="geometry">
            <mxPoint x="100" y="390" as="sourcePoint" />
            <mxPoint x="220" y="220" as="targetPoint" />
          </mxGeometry>
        </mxCell>
        <mxCell id="SdMJ1yGRml973B7oLKnL-81" value="" style="endArrow=none;html=1;rounded=0;entryX=0;entryY=0.5;entryDx=0;entryDy=0;exitX=1;exitY=0.3333333333333333;exitDx=0;exitDy=0;exitPerimeter=0;" edge="1" parent="1" source="SdMJ1yGRml973B7oLKnL-2" target="SdMJ1yGRml973B7oLKnL-11">
          <mxGeometry width="50" height="50" relative="1" as="geometry">
            <mxPoint x="100" y="390" as="sourcePoint" />
            <mxPoint x="220" y="350" as="targetPoint" />
          </mxGeometry>
        </mxCell>
        <mxCell id="SdMJ1yGRml973B7oLKnL-91" value="新闻分类" style="ellipse;whiteSpace=wrap;html=1;" vertex="1" parent="1">
          <mxGeometry x="401" y="150" width="90" height="40" as="geometry" />
        </mxCell>
        <mxCell id="SdMJ1yGRml973B7oLKnL-92" value="" style="endArrow=block;dashed=1;endFill=0;endSize=12;html=1;rounded=0;entryX=0;entryY=0.5;entryDx=0;entryDy=0;exitX=1;exitY=0.5;exitDx=0;exitDy=0;" edge="1" parent="1" target="SdMJ1yGRml973B7oLKnL-91" source="SdMJ1yGRml973B7oLKnL-5">
          <mxGeometry width="160" relative="1" as="geometry">
            <mxPoint x="286" y="170.00000000000023" as="sourcePoint" />
            <mxPoint x="454" y="173.95" as="targetPoint" />
          </mxGeometry>
        </mxCell>
        <mxCell id="SdMJ1yGRml973B7oLKnL-93" value="《include》" style="edgeLabel;html=1;align=center;verticalAlign=middle;resizable=0;points=[];" vertex="1" connectable="0" parent="SdMJ1yGRml973B7oLKnL-92">
          <mxGeometry x="-0.0826" relative="1" as="geometry">
            <mxPoint as="offset" />
          </mxGeometry>
        </mxCell>
        <mxCell id="SdMJ1yGRml973B7oLKnL-94" value="回复评论" style="ellipse;whiteSpace=wrap;html=1;" vertex="1" parent="1">
          <mxGeometry x="406" y="210" width="90" height="40" as="geometry" />
        </mxCell>
        <mxCell id="SdMJ1yGRml973B7oLKnL-95" value="" style="endArrow=block;dashed=1;endFill=0;endSize=12;html=1;rounded=0;entryX=1;entryY=0.5;entryDx=0;entryDy=0;exitX=0;exitY=0.5;exitDx=0;exitDy=0;" edge="1" parent="1" source="SdMJ1yGRml973B7oLKnL-94" target="SdMJ1yGRml973B7oLKnL-6">
          <mxGeometry width="160" relative="1" as="geometry">
            <mxPoint x="114" y="150" as="sourcePoint" />
            <mxPoint x="314" y="210" as="targetPoint" />
          </mxGeometry>
        </mxCell>
        <mxCell id="SdMJ1yGRml973B7oLKnL-96" value="《extend》" style="edgeLabel;html=1;align=center;verticalAlign=middle;resizable=0;points=[];" vertex="1" connectable="0" parent="SdMJ1yGRml973B7oLKnL-95">
          <mxGeometry x="-0.1669" y="2" relative="1" as="geometry">
            <mxPoint as="offset" />
          </mxGeometry>
        </mxCell>
        <mxCell id="SdMJ1yGRml973B7oLKnL-98" value="" style="endArrow=none;html=1;rounded=0;entryX=0;entryY=0.3333333333333333;entryDx=0;entryDy=0;exitX=0;exitY=0.5;exitDx=0;exitDy=0;entryPerimeter=0;" edge="1" parent="1" source="SdMJ1yGRml973B7oLKnL-14" target="SdMJ1yGRml973B7oLKnL-3">
          <mxGeometry width="50" height="50" relative="1" as="geometry">
            <mxPoint x="100" y="390" as="sourcePoint" />
            <mxPoint x="216" y="420" as="targetPoint" />
            <Array as="points">
              <mxPoint x="490" y="620" />
            </Array>
          </mxGeometry>
        </mxCell>
        <mxCell id="SdMJ1yGRml973B7oLKnL-99" value="" style="endArrow=none;html=1;rounded=0;entryX=0;entryY=0.3333333333333333;entryDx=0;entryDy=0;exitX=0;exitY=0.5;exitDx=0;exitDy=0;entryPerimeter=0;" edge="1" parent="1" source="SdMJ1yGRml973B7oLKnL-35" target="SdMJ1yGRml973B7oLKnL-3">
          <mxGeometry width="50" height="50" relative="1" as="geometry">
            <mxPoint x="100" y="390" as="sourcePoint" />
            <mxPoint x="216" y="420" as="targetPoint" />
            <Array as="points">
              <mxPoint x="500" y="660" />
            </Array>
          </mxGeometry>
        </mxCell>
        <mxCell id="SdMJ1yGRml973B7oLKnL-103" value="" style="endArrow=none;html=1;rounded=0;entryX=1;entryY=0.5;entryDx=0;entryDy=0;exitX=0;exitY=0.3333333333333333;exitDx=0;exitDy=0;exitPerimeter=0;" edge="1" parent="1" source="SdMJ1yGRml973B7oLKnL-3" target="SdMJ1yGRml973B7oLKnL-8">
          <mxGeometry width="50" height="50" relative="1" as="geometry">
            <mxPoint x="100" y="390" as="sourcePoint" />
            <mxPoint x="217" y="360" as="targetPoint" />
          </mxGeometry>
        </mxCell>
        <mxCell id="SdMJ1yGRml973B7oLKnL-104" style="edgeStyle=orthogonalEdgeStyle;rounded=0;orthogonalLoop=1;jettySize=auto;html=1;exitX=0.5;exitY=1;exitDx=0;exitDy=0;" edge="1" parent="1" source="SdMJ1yGRml973B7oLKnL-101" target="SdMJ1yGRml973B7oLKnL-101">
          <mxGeometry relative="1" as="geometry" />
        </mxCell>
      </root>
    </mxGraphModel>
  </diagram>
</mxfile>
